#!OML:ASF X:\für Bonn\!DataBase\2005_08_12_Daniel\c3d\Daniel.ASF
:FULLY-SPECIFIED
:DEGREES
185
root 19.6804 2.48127 0.528497 -1268.05 243.374 120.991
lowerback 66.4427 -4.21731 22.7458
upperback 11.8698 7.71122 -2.32511
thorax -4.4867 3.45353 -14.6606
lowerneck 9.4068 13.7386 0.227152
upperneck 12.4902 18.5255 -8.59194
head 3.53501 8.81241 -2.77432
rclavicle -1.20861e-013 1.20861e-013
rhumerus -303.812 57.4368 307.916
rradius 49.0082
rwrist 6.86802
rhand -0.417487 736.766
rfingers 7.12502
rthumb 25.1904 708.408
lclavicle -1.20861e-013 1.20861e-013
lhumerus -391.444 12.1494 -279.538
lradius 30.7372
lwrist 7.69638
lhand -71.6298 -604.764
lfingers 7.12502
lthumb -43.135 -268.962
rfemur -94.3988 -48.963 45.3176
rtibia 125.74
rfoot 414.61 21.4972
rtoes 20.019
lfemur -64.687 43.1913 -57.5025
ltibia 132.265
lfoot 4.68295 -12.5221
ltoes -0.384226
186
root 19.7032 2.39849 0.560803 -1267.59 244.186 120.07
lowerback 66.245 -4.29798 22.7675
upperback 11.9693 7.56804 -2.19089
thorax -4.41791 3.37318 -14.4553
lowerneck 9.23056 13.8863 0.297891
upperneck 12.5341 18.7351 -8.47088
head 3.58668 8.91588 -2.72497
rclavicle 1.62208e-013 -4.45278e-014
rhumerus -303.602 56.8904 308.352
rradius 49.8644
rwrist 6.10189
rhand -0.901201 736.919
rfingers 7.12502
rthumb 24.7269 708.497
lclavicle 1.62208e-013 -4.45278e-014
lhumerus -393.149 10.904 -278.822
lradius 32.7134
lwrist 9.84753
lhand -71.5466 -604.666
lfingers 7.12502
lthumb -43.0572 -268.891
rfemur -94.3341 -48.9258 45.523
rtibia 125.539
rfoot 414.553 20.7214
rtoes 19.6366
lfemur -65.4443 43.0791 -58.1633
ltibia 132.252
lfoot 4.55952 -11.5321
ltoes -0.387854
187
root 19.7235 2.31878 0.588966 -1267.08 244.933 119.107
lowerback 66.0601 -4.33806 22.7154
upperback 12.0545 7.43078 -2.01567
thorax -4.38267 3.28257 -14.1792
lowerneck 8.93935 14.0358 0.458541
upperneck 12.6745 18.9727 -8.39842
head 3.71092 9.02918 -2.6917
rclavicle -1.44715e-013 3.18055e-015
rhumerus -303.557 56.3389 308.615
rradius 50.6683
rwrist 5.41423
rhand -1.48843 736.985
rfingers 7.12502
rthumb 24.164 708.487
lclavicle -1.44715e-013 3.18055e-015
lhumerus -394.928 9.63138 -278.024
lradius 34.8547
lwrist 12.0153
lhand -71.4312 -603.964
lfingers 7.12502
lthumb -42.9493 -268.228
rfemur -94.2541 -48.9359 45.7369
rtibia 125.34
rfoot 414.429 19.9459
rtoes 19.1484
lfemur -66.1786 42.9411 -58.7522
ltibia 132.262
lfoot 4.46421 -10.555
ltoes -0.328261
188
root 19.7411 2.24267 0.610734 -1266.5 245.601 118.102
lowerback 65.8802 -4.35483 22.6263
upperback 12.1198 7.30298 -1.82323
thorax -4.37654 3.18879 -13.8755
lowerneck 8.59406 14.1841 0.5788
upperneck 12.7977 19.2031 -8.27342
head 3.82689 9.13856 -2.63071
rclavicle -4.6118e-014 -2.8625e-014
rhumerus -303.824 55.7473 308.552
rradius 51.4469
rwrist 4.90066
rhand -2.18682 737.049
rfingers 7.12502
rthumb 23.4942 708.464
lclavicle -4.6118e-014 -2.8625e-014
lhumerus -396.728 8.44121 -277.209
lradius 37.1066
lwrist 14.0781
lhand -71.3746 -603.87
lfingers 7.12502
lthumb -42.8964 -268.152
rfemur -94.1647 -48.9386 45.9585
rtibia 125.136
rfoot 414.206 19.0967
rtoes 18.6978
lfemur -66.8943 42.7461 -59.2404
ltibia 132.299
lfoot 4.4628 -9.64099
ltoes -0.165227
189
root 19.7566 2.1725 0.627596 -1265.85 246.205 117.012
lowerback 65.6765 -4.35809 22.5137
upperback 12.2032 7.167 -1.61528
thorax -4.3571 3.09056 -13.5436
lowerneck 8.02839 14.3134 0.934113
upperneck 13.369 19.5079 -8.47701
head 3.72069 9.24332 -2.4346
rclavicle 8.11041e-014 1.27222e-014
rhumerus -304.357 55.1089 308.192
rradius 52.2445
rwrist 4.59866
rhand -2.78194 737.078
rfingers 7.12502
rthumb 22.9232 708.421
lclavicle 8.11041e-014 1.27222e-014
lhumerus -398.496 7.25351 -276.345
lradius 39.3975
lwrist 16.0692
lhand -71.346 -603.013
lfingers 7.12502
lthumb -42.8695 -267.305
rfemur -94.0233 -48.9888 46.2069
rtibia 124.913
rfoot 413.943 18.2573
rtoes 18.2074
lfemur -67.5214 42.6313 -59.575
ltibia 132.349
lfoot 4.48905 -8.82483
ltoes -0.0446494
190
root 19.7708 2.10764 0.63909 -1265.15 246.726 115.884
lowerback 65.4587 -4.35012 22.3813
upperback 12.2788 7.03445 -1.38314
thorax -4.35112 2.9892 -13.1797
lowerneck 7.59783 14.4228 1.40289
upperneck 13.6019 19.7375 -8.52743
head 3.9196 9.35579 -2.45607
rclavicle 3.33958e-014 9.54166e-015
rhumerus -305.215 54.4481 307.431
rradius 53.01
rwrist 4.50622
rhand -3.23159 737.127
rfingers 7.12502
rthumb 22.4917 708.417
lclavicle 3.33958e-014 9.54166e-015
lhumerus -400.275 6.15215 -275.462
lradius 41.7084
lwrist 17.9239
lhand -71.3056 -602.521
lfingers 7.12502
lthumb -42.8318 -266.826
rfemur -93.8195 -49.1054 46.4634
rtibia 124.66
rfoot 413.643 17.403
rtoes 17.8624
lfemur -68.088 42.5315 -59.7938
ltibia 132.42
lfoot 4.59473 -8.06551
ltoes 0.251933
191
root 19.7809 2.04832 0.645895 -1264.34 247.19 114.676
lowerback 65.1405 -4.31092 22.2347
upperback 12.3807 6.90498 -1.13779
thorax -4.31858 2.89363 -12.803
lowerneck 7.27803 14.5272 1.89636
upperneck 13.7577 19.947 -8.58143
head 4.08099 9.46593 -2.49257
rclavicle -8.82604e-014 1.27222e-014
rhumerus -306.127 53.7507 306.581
rradius 53.7388
rwrist 4.4862
rhand -3.64011 737.185
rfingers 7.12502
rthumb 22.0995 708.428
lclavicle -8.82604e-014 1.27222e-014
lhumerus -402.03 5.08923 -274.564
lradius 44.0046
lwrist 19.672
lhand -71.3009 -602.142
lfingers 7.12502
lthumb -42.8274 -266.449
rfemur -93.6311 -49.2343 46.7769
rtibia 124.411
rfoot 413.313 16.4949
rtoes 17.7578
lfemur -68.6365 42.4742 -59.9037
ltibia 132.535
lfoot 4.71629 -7.42347
ltoes 0.551805
192
root 19.7898 1.99628 0.649293 -1263.6 247.603 113.524
lowerback 64.7739 -4.23942 22.0491
upperback 12.5275 6.77193 -0.866365
thorax -4.24429 2.79947 -12.3833
lowerneck 7.17282 14.6226 2.31155
upperneck 13.7445 20.1178 -8.67311
head 4.15247 9.56541 -2.55401
rclavicle 8.74653e-014 6.99722e-014
rhumerus -307.045 52.992 305.76
rradius 54.4552
rwrist 4.48597
rhand -3.90088 737.223
rfingers 7.12502
rthumb 21.8491 708.436
lclavicle 8.74653e-014 6.99722e-014
lhumerus -403.734 4.09617 -273.623
lradius 46.2502
lwrist 21.2457
lhand -71.306 -602.385
lfingers 7.12502
lthumb -42.8321 -266.69
rfemur -93.3875 -49.5265 47.0466
rtibia 124.185
rfoot 412.966 15.6691
rtoes 17.7572
lfemur -69.0753 42.588 -59.9154
ltibia 132.659
lfoot 4.83645 -6.94217
ltoes 0.71566
193
root 19.7983 1.94916 0.647403 -1262.8 247.958 112.312
lowerback 64.4014 -4.17617 21.8891
upperback 12.6703 6.64755 -0.601343
thorax -4.16481 2.71198 -11.9851
lowerneck 7.34986 14.7046 2.65283
upperneck 13.5138 20.237 -8.75853
head 4.10304 9.65354 -2.63733
rclavicle -1.16885e-013 1.59028e-014
rhumerus -308.106 52.1554 304.814
rradius 55.129
rwrist 4.55759
rhand -4.14298 737.23
rfingers 7.12502
rthumb 21.6167 708.416
lclavicle -1.16885e-013 1.59028e-014
lhumerus -405.422 3.11006 -272.659
lradius 48.4791
lwrist 22.6522
lhand -71.3415 -602.683
lfingers 7.12502
lthumb -42.8653 -266.976
rfemur -93.0815 -49.8264 47.3265
rtibia 123.94
rfoot 412.51 14.8446
rtoes 17.8009
lfemur -69.4298 42.7568 -59.7964
ltibia 132.784
lfoot 5.00407 -6.50481
ltoes 1.02515
194
root 19.809 1.90917 0.642856 -1262.02 248.291 111.108
lowerback 64.0425 -4.11566 21.7455
upperback 12.8145 6.53106 -0.3655
thorax -4.07411 2.63372 -11.6303
lowerneck 7.62187 14.7556 3.04797
upperneck 13.1998 20.3142 -8.88065
head 4.01983 9.7284 -2.75031
rclavicle 3.06128e-014 -2.54444e-014
rhumerus -309.36 51.2745 303.618
rradius 55.7042
rwrist 4.71817
rhand -4.41146 737.207
rfingers 7.12502
rthumb 21.3588 708.365
lclavicle 3.06128e-014 -2.54444e-014
lhumerus -407.084 2.15458 -271.698
lradius 50.6676
lwrist 23.837
lhand -71.3222 -603.641
lfingers 7.12502
lthumb -42.8473 -267.941
rfemur -92.6323 -50.1617 47.5281
rtibia 123.664
rfoot 411.999 13.9925
rtoes 17.9034
lfemur -69.7059 43.0541 -59.5846
ltibia 132.9
lfoot 5.17135 -6.20077
ltoes 1.22044
195
root 19.8184 1.87426 0.634335 -1261.26 248.574 109.904
lowerback 63.6757 -4.06924 21.609
upperback 12.9758 6.39667 -0.144802
thorax -3.96265 2.5516 -11.2896
lowerneck 7.96662 14.8129 3.35508
upperneck 12.7828 20.382 -8.95853
head 3.88097 9.80193 -2.8501
rclavicle -9.58142e-014 -4.45278e-014
rhumerus -310.81 50.3781 302.189
rradius 56.211
rwrist 4.95449
rhand -4.75602 737.146
rfingers 7.12502
rthumb 21.0278 708.267
lclavicle -9.58142e-014 -4.45278e-014
lhumerus -408.735 1.22344 -270.747
lradius 52.8505
lwrist 24.7906
lhand -71.3762 -604.904
lfingers 7.12502
lthumb -42.8978 -269.186
rfemur -92.1101 -50.5696 47.7072
rtibia 123.382
rfoot 411.438 13.1187
rtoes 18.0117
lfemur -69.9013 43.4335 -59.2644
ltibia 133.031
lfoot 5.3726 -5.97041
ltoes 1.61834
196
root 19.8287 1.84272 0.623233 -1260.57 248.851 108.782
lowerback 63.328 -4.00679 21.4314
upperback 13.1318 6.25823 0.0623972
thorax -3.86315 2.46578 -10.9493
lowerneck 8.40179 14.8713 3.63245
upperneck 12.3116 20.4473 -9.06376
head 3.71202 9.87553 -2.96378
rclavicle 1.98785e-014 7.95139e-014
rhumerus -312.416 49.5306 300.544
rradius 56.5578
rwrist 5.18053
rhand -5.25728 737.109
rfingers 7.12502
rthumb 20.5462 708.176
lclavicle 1.98785e-014 7.95139e-014
lhumerus -410.423 0.331692 -269.766
lradius 55.0529
lwrist 25.55
lhand -71.4006 -605.699
lfingers 7.12502
lthumb -42.9207 -269.972
rfemur -91.5235 -50.9897 47.8052
rtibia 123.097
rfoot 410.906 12.2591
rtoes 18.2962
lfemur -70.0639 43.8238 -58.9543
ltibia 133.154
lfoot 5.5445 -5.74897
ltoes 1.8895
